<svg xmlns="http://www.w3.org/2000/svg" viewBox="0 0 2200 1400" preserveAspectRatio="xMidYMid slice">
  <defs>
    <linearGradient id="sky" x1="0" y1="0" x2="0" y2="1">
      <stop offset="0%" stop-color="#273443"/>
      <stop offset="55%" stop-color="#1d2a37"/>
      <stop offset="100%" stop-color="#131d28"/>
    </linearGradient>
    <linearGradient id="mist" x1="0" y1="0" x2="1" y2="0">
      <stop offset="0%" stop-color="#6c8194" stop-opacity="0.22"/>
      <stop offset="50%" stop-color="#95aab6" stop-opacity="0.18"/>
      <stop offset="100%" stop-color="#6c8194" stop-opacity="0.22"/>
    </linearGradient>
    <linearGradient id="hillA" x1="0" y1="0" x2="0" y2="1">
      <stop offset="0%" stop-color="#243443"/>
      <stop offset="100%" stop-color="#172531"/>
    </linearGradient>
    <linearGradient id="hillB" x1="0" y1="0" x2="0" y2="1">
      <stop offset="0%" stop-color="#2a3a48"/>
      <stop offset="100%" stop-color="#1b2935"/>
    </linearGradient>
    <linearGradient id="water" x1="0" y1="0" x2="0" y2="1">
      <stop offset="0%" stop-color="#2e4353" stop-opacity="0.78"/>
      <stop offset="100%" stop-color="#131f2b" stop-opacity="0.96"/>
    </linearGradient>
    <filter id="softBlur" x="-20%" y="-20%" width="140%" height="140%">
      <feGaussianBlur stdDeviation="36"/>
    </filter>
  </defs>

  <rect width="2200" height="1400" fill="url(#sky)"/>
  <rect x="0" y="220" width="2200" height="260" fill="url(#mist)" filter="url(#softBlur)" opacity="0.42"/>

  <path d="M0 620 C220 580 360 610 520 560 C700 505 860 560 1040 520 C1220 480 1460 560 1640 525 C1840 485 2030 560 2200 530 L2200 920 L0 920 Z" fill="url(#hillA)"/>
  <path d="M0 700 C220 665 420 725 610 690 C780 655 970 720 1180 680 C1380 640 1540 700 1750 670 C1930 645 2050 700 2200 680 L2200 980 L0 980 Z" fill="url(#hillB)" opacity="0.9"/>

  <path d="M0 880 C300 860 520 910 780 890 C1060 870 1280 930 1540 905 C1820 880 2000 930 2200 918 L2200 1400 L0 1400 Z" fill="url(#water)"/>

  <rect x="0" y="860" width="2200" height="220" fill="url(#mist)" opacity="0.28" filter="url(#softBlur)"/>
  <rect x="0" y="0" width="2200" height="1400" fill="#0a1118" opacity="0.14"/>
</svg>
